<svg id="Capa_1" enable-background="new 0 0 512 512" height="512" viewBox="0 0 512 512" width="512" xmlns="http://www.w3.org/2000/svg"><g><path d="m115 397h282v-282h-282zm30-252h222v222h-222z"/><path d="m175 337h162v-162h-162zm30-132h102v102h-102z"/><path d="m512 120.88v-30h-53.787l-37.093-37.093v-53.787h-30v45h-30.048v-45h-30v45h-30.048v-45h-30v45h-30.049v-45h-30v45h-30.048v-45h-30v45h-30.047v-45h-30v53.788l-37.093 37.092h-53.787v30h45v30.048h-45v30h45v30.048h-45v30h45v30.048h-45v30h45v30.048h-45v30h45v30.048h-45v30h53.786l37.094 37.093v53.787h30v-45h30.048v45h30v-45h30.048v45h30v-45h30.049v45h30v-45h30.048v45h30v-45h30.048v45h30v-53.788l37.094-37.092h53.785v-30h-45v-30.048h45v-30h-45v-30.048h45v-30h-45v-30.048h45v-30h-45v-30.048h45v-30h-45v-30.048zm-75 279.027-37.094 37.093h-287.813l-37.093-37.093v-287.813l37.094-37.094h287.813l37.093 37.093z"/></g></svg>