<svg height="479.744pt" viewBox="0 0 479.744 479.744" width="479.744pt" xmlns="http://www.w3.org/2000/svg"><g fill="#3e3d42"><path d="m95.746094 184c0 8.835938-7.164063 16-16 16-8.835938 0-16-7.164062-16-16s7.164062-16 16-16c8.835937 0 16 7.164062 16 16zm0 0"/><path d="m71.746094 264c0 8.835938-7.164063 16-16 16-8.835938 0-16-7.164062-16-16s7.164062-16 16-16c8.835937 0 16 7.164062 16 16zm0 0"/><path d="m159.746094 296c0 8.835938-7.164063 16-16 16-8.835938 0-16-7.164062-16-16s7.164062-16 16-16c8.835937 0 16 7.164062 16 16zm0 0"/><path d="m127.746094 368c0 8.835938-7.164063 16-16 16-8.835938 0-16-7.164062-16-16s7.164062-16 16-16c8.835937 0 16 7.164062 16 16zm0 0"/><path d="m231.746094 384c0 8.835938-7.164063 16-16 16-8.835938 0-16-7.164062-16-16s7.164062-16 16-16c8.835937 0 16 7.164062 16 16zm0 0"/><path d="m399.746094 352c0 8.835938-7.164063 16-16 16-8.835938 0-16-7.164062-16-16s7.164062-16 16-16c8.835937 0 16 7.164062 16 16zm0 0"/></g><path d="m471.027344 268.878906-5.199219 22.722656c-21.148437 93.097657-97.179687 163.726563-191.582031 177.960938s-187.882813-30.835938-235.539063-113.558594-39.75-186.199218 19.917969-260.722656l8.160156-10.242188 5.359375 11.921876c5.601563 12.398437 16 35.519531 39.601563 47.039062 10.332031 4.710938 21.613281 6.957031 32.960937 6.558594 11.191407-1.109375 22.359375 2.289062 31.039063 9.441406 8.558594 8.691406 14.15625 19.863281 16 31.921875 1.539062 7.628906 1.539062 15.488281 0 23.117187-1.660156 8.238282-1.660156 16.722657 0 24.960938 1.398437 12.21875 7.0625 23.550781 16 32 5.34375 4.003906 11.523437 6.738281 18.082031 8 5.546875.421875 10.621094 3.296875 13.839844 7.839844 1.742187 3.777344 1.914062 8.09375.476562 12-1.183593 3.976562-1.324219 8.195312-.398437 12.238281 1.761718 6.722656 6.160156 9.042969 13.679687 12.5625 6.640625 2.847656 12.816407 6.675781 18.320313 11.359375 16.242187 15.117188 27.441406 34.863281 32.082031 56.558594.273437 6.011718 3.132813 11.613281 7.839844 15.363281 2.433593 1.464844 5.234375 2.214844 8.078125 2.15625 2.808594.058594 5.574218-.664063 8-2.078125 6.558594-3.921875 6.800781-12.078125 6.71875-28.800781-.242188-11.746094.1875-23.5 1.28125-35.199219 2.480468-23.761719 4.238281-40.878906 16-48 4.996094-2.808594 10.675781-4.167969 16.398437-3.921875 8.007813.25 15.945313 1.570313 23.601563 3.921875 4.289062 1.199219 8.445312 2.835938 12.398437 4.878906 3.53125 1.960938 7.484375 3.03125 11.523438 3.121094 12.558593 0 21.597656-7.441406 32.078125-16zm0 0" fill="#ffde55"/><path d="m319.746094 410.078125c-2.847656.035156-5.652344-.707031-8.113282-2.148437-4.777343-3.980469-7.652343-9.789063-7.910156-16-4.792968-21.4375-15.9375-40.925782-31.976562-55.929688-5.261719-4.519531-11.175782-8.214844-17.542969-10.96875-7.601563-3.574219-12.65625-5.96875-14.449219-13.078125-.9375-4.007813-.78125-8.195313.457032-12.121094 1.429687-3.847656 1.261718-8.109375-.464844-11.832031-2.550782-4.921875-6.839844-6.28125-13.601563-7.953125-6.691406-1.1875-13-3.96875-18.398437-8.101563-8.953125-8.414062-14.621094-19.738281-16-31.945312-1.691406-8.121094-1.71875-16.5-.078125-24.632812 1.59375-7.703126 1.621093-15.652344.078125-23.367188-1.910156-12.058594-7.496094-23.238281-16-32-8.535156-7.136719-19.59375-10.53125-30.664063-9.414062-11.472656.410156-22.882812-1.84375-33.335937-6.585938-23.929688-11.695312-34.761719-36.175781-40-47.953125-.664063-1.503906-1.207032-2.941406-1.734375-4.375l-.800781-2.054687-1.890626-4.738282 3.496094-3.703125c43.652344-46.867187 104.882813-73.394531 168.929688-73.175781 66.195312-.085938 129.265625 28.148438 173.296875 77.578125 44.027343 49.429687 64.8125 115.332031 57.101562 181.078125l-.359375 3.199219-21.992187 18.144531c-11.40625 9.296875-19.621094 16-31.136719 16h-1.046875c-4.082031-.109375-8.078125-1.238281-11.613281-3.28125-3.957032-1.984375-8.09375-3.59375-12.355469-4.796875-7.59375-2.324219-15.460937-3.628906-23.398437-3.875-5.75-.226563-11.457032 1.125-16.496094 3.90625-11.128906 6.75-13.152344 21.085937-16 48-1.085938 11.699219-1.5 23.453125-1.246094 35.199219.101562 14.878906.167969 24.703125-6.785156 28.847656-2.414063 1.417969-5.171875 2.136719-7.96875 2.078125zm0 0" fill="#ab2300"/><path d="m127.746094 368c0 8.835938-7.164063 16-16 16-8.835938 0-16-7.164062-16-16s7.164062-16 16-16c8.835937 0 16 7.164062 16 16zm0 0" fill="#57565c"/><path d="m231.746094 384c0 8.835938-7.164063 16-16 16-8.835938 0-16-7.164062-16-16s7.164062-16 16-16c8.835937 0 16 7.164062 16 16zm0 0" fill="#57565c"/><path d="m399.746094 352c0 8.835938-7.164063 16-16 16-8.835938 0-16-7.164062-16-16s7.164062-16 16-16c8.835937 0 16 7.164062 16 16zm0 0" fill="#57565c"/><path d="m159.746094 296c0 8.835938-7.164063 16-16 16-8.835938 0-16-7.164062-16-16s7.164062-16 16-16c8.835937 0 16 7.164062 16 16zm0 0" fill="#57565c"/><path d="m71.746094 264c0 8.835938-7.164063 16-16 16-8.835938 0-16-7.164062-16-16s7.164062-16 16-16c8.835937 0 16 7.164062 16 16zm0 0" fill="#57565c"/><path d="m95.746094 184c0 8.835938-7.164063 16-16 16-8.835938 0-16-7.164062-16-16s7.164062-16 16-16c8.835937 0 16 7.164062 16 16zm0 0" fill="#57565c"/><path d="m239.746094 0c-67.53125-.0273438-131.9375 28.46875-177.335938 78.464844-.375.34375-.710937.722656-1.007812 1.136718-75.660156 84.25-82.097656 209.941407-15.433594 301.480469 66.664062 91.539063 188.261719 123.988281 291.667969 77.835938 103.410156-46.15625 160.453125-158.339844 136.828125-269.085938-23.621094-110.75-121.480469-189.8906248-234.71875-189.832031zm0 16c63.921875-.101562 124.835937 27.15625 167.351562 74.886719 42.519532 47.734375 62.582032 111.378906 55.121094 174.867187l-19.535156 16.0625c-11.203125 9.183594-17.890625 14.511719-26.792969 14.183594-2.972656-.089844-5.871094-.945312-8.417969-2.480469-4.359375-2.164062-8.914062-3.921875-13.597656-5.246093-8.394531-2.34375-30.695312-8.570313-46.226562.886718-15.09375 9.113282-17.078126 27.945313-19.820313 54.015625-1.148437 11.964844-1.597656 23.984375-1.347656 36 .082031 11.289063.136719 20.191407-2.832031 21.976563-2.4375 1.230468-5.316407 1.230468-7.757813 0-2.6875-1.601563-3.609375-6.96875-4.234375-10.558594-5.070312-23.25-17.140625-44.390625-34.582031-60.578125-5.988281-5.160156-12.734375-9.371094-20-12.480469-6.953125-3.246094-8.664063-4.335937-9.519531-7.558594-.546876-2.773437-.371094-5.636718.519531-8.320312 1.886719-5.722656 1.464843-11.957031-1.175781-17.375-4.15625-6.71875-11.167969-11.15625-19.015626-12.042969-5.449218-.90625-10.601562-3.097656-15.03125-6.398437-7.472656-7.308594-12.144531-17.003906-13.203124-27.398438-1.5-7.175781-1.5-14.585937 0-21.761718 1.746093-8.644532 1.746093-17.546876 0-26.191407-2.179688-13.75-8.636719-26.460937-18.445313-36.335937-10.042969-8.539063-23.089844-12.691406-36.21875-11.527344-10.222656.40625-20.402344-1.585938-29.71875-5.824219-21.144531-10.402343-30.953125-32.296875-36.191406-44-.9375-2.152343-1.601563-4.144531-2.351563-6.183593 42.238282-45.070313 101.253906-70.632813 163.023438-70.617188zm0 448c-86.097656.070312-164.601563-49.253906-201.90625-126.851562-37.300782-77.597657-26.785156-169.710938 27.042968-236.910157 6.191407 13.824219 17.597657 38.3125 43.351563 50.945313 11.367187 5.242187 23.800781 7.765625 36.3125 7.375 10.589844.265625 18.238281.441406 25.816406 7.351562 7.277344 7.601563 12.011719 17.273438 13.550781 27.683594 1.355469 6.78125 1.316407 13.769531-.121093 20.535156-1.8125 9.074219-1.769531 18.421875.121093 27.480469 1.707032 14.046875 8.371094 27.023437 18.792969 36.597656 6.25 4.8125 13.542969 8.089844 21.296875 9.5625 5.933594 1.445313 7.6875 2.109375 8.671875 4 .75 1.414063.605469 2.511719-.257812 6.277344-1.519531 5.207031-1.660157 10.722656-.40625 16 2.722656 8.636719 9.546875 15.359375 18.222656 17.953125 5.882813 2.484375 11.355469 5.851562 16.222656 9.984375 14.871094 13.949219 25.160157 32.082031 29.511719 52 .628906 8.304687 4.875 15.910156 11.617188 20.800781 7.515624 4.328125 16.769531 4.328125 24.289062 0 10.765625-6.472656 10.6875-18.761718 10.566406-35.777344-.246094-11.429687.175782-22.859374 1.257813-34.238281 2.488281-23.617187 4.269531-37.210937 12.207031-42 9.601562-5.839843 27.679688-.800781 33.671875.871094 3.792969 1.066406 7.476563 2.492187 11 4.253906 4.59375 2.566407 9.742187 3.972657 15 4.105469h.800781c14.6875 0 25.261719-8.65625 36.457032-17.816406l5.269531-4.328125c-23.367188 101.804687-113.90625 174.011719-218.359375 174.144531zm0 0"/><path d="m103.746094 184c0-13.253906-10.746094-24-24-24s-24 10.746094-24 24 10.746094 24 24 24 24-10.746094 24-24zm-24 8c-4.417969 0-8-3.582031-8-8s3.582031-8 8-8c4.417968 0 8 3.582031 8 8s-3.582032 8-8 8zm0 0"/><path d="m55.746094 240c-13.253906 0-24 10.746094-24 24s10.746094 24 24 24 24-10.746094 24-24-10.746094-24-24-24zm0 32c-4.417969 0-8-3.582031-8-8s3.582031-8 8-8c4.417968 0 8 3.582031 8 8s-3.582032 8-8 8zm0 0"/><path d="m143.746094 272c-13.253906 0-24 10.746094-24 24s10.746094 24 24 24 24-10.746094 24-24-10.746094-24-24-24zm0 32c-4.417969 0-8-3.582031-8-8s3.582031-8 8-8c4.417968 0 8 3.582031 8 8s-3.582032 8-8 8zm0 0"/><path d="m111.746094 344c-13.253906 0-24 10.746094-24 24s10.746094 24 24 24 24-10.746094 24-24-10.746094-24-24-24zm0 32c-4.417969 0-8-3.582031-8-8s3.582031-8 8-8c4.417968 0 8 3.582031 8 8s-3.582032 8-8 8zm0 0"/><path d="m215.746094 360c-13.253906 0-24 10.746094-24 24s10.746094 24 24 24 24-10.746094 24-24-10.746094-24-24-24zm0 32c-4.417969 0-8-3.582031-8-8s3.582031-8 8-8c4.417968 0 8 3.582031 8 8s-3.582032 8-8 8zm0 0"/><path d="m383.746094 328c-13.253906 0-24 10.746094-24 24s10.746094 24 24 24 24-10.746094 24-24-10.746094-24-24-24zm0 32c-4.417969 0-8-3.582031-8-8s3.582031-8 8-8c4.417968 0 8 3.582031 8 8s-3.582032 8-8 8zm0 0"/></svg>