<svg height="448pt" viewBox="0 0 448 448" width="448pt" xmlns="http://www.w3.org/2000/svg"><path d="m109.792969 248.257812c2.800781-1.613281 6.296875-1.382812 8.863281.585938 2.5625 1.96875 3.691406 5.289062 2.855469 8.414062l-3.910157 14.679688c16.335938 1 31.636719-8.054688 38.621094-22.859375s4.242188-32.367187-6.917968-44.34375l-19.082032 11.007813c-2.800781 1.613281-6.296875 1.382812-8.863281-.585938-2.5625-1.96875-3.691406-5.289062-2.855469-8.414062l3.929688-14.679688c-16.339844-1-31.636719 8.054688-38.621094 22.859375s-4.246094 32.367187 6.914062 44.34375zm0 0"/><path d="m308 266.632812c6.78125 3.9375 14.574219 5.78125 22.398438 5.304688l-3.925782-14.679688c-.835937-3.125.289063-6.445312 2.855469-8.414062 2.5625-1.96875 6.0625-2.199219 8.863281-.585938l19.082032 11.007813c11.160156-11.976563 13.898437-29.539063 6.914062-44.34375s-22.28125-23.859375-38.621094-22.859375l3.929688 14.679688c.835937 3.125-.292969 6.445312-2.855469 8.414062-2.566406 1.96875-6.0625 2.199219-8.863281.585938l-19.082032-11.007813c-8.300781 8.921875-12.078124 21.140625-10.269531 33.191406 1.8125 12.050781 9.019531 22.617188 19.574219 28.707031zm0 0"/><path d="m315.257812 344.886719 2.148438 8.089843c1.140625 4.261719-1.386719 8.644532-5.644531 9.792969l-30.960938 8.320313c-2.050781.550781-4.238281.261718-6.078125-.800782s-3.183594-2.8125-3.730468-4.863281l-4.046876-15.203125c-28.660156 1.992188-57.410156 2.296875-86.105468.914063l-3.832032 14.289062c-.550781 2.050781-1.890624 3.796875-3.730468 4.859375s-4.027344 1.347656-6.078125.792969l-30.960938-8.316406c-4.265625-1.148438-6.796875-5.542969-5.644531-9.808594l1.597656-5.914063c-31.238281-3.308593-61.964844-10.375-91.511718-21.046874 7.480468 32.800781 75.433593 60.871093 159.320312 65.335937v-15.328125c0-4.417969 3.582031-8 8-8h32c4.417969 0 8 3.582031 8 8v15.328125c88.960938-4.734375 160-36.046875 160-71.328125 0-.519531 0-1.03125-.046875-1.542969-29.320313 13.625-60.601563 22.546875-92.695313 26.429688zm0 0"/><path d="m208 78.640625v18.320313c10.628906-1.28125 21.371094-1.28125 32 0v-18.320313c-.003906-16.144531 3.773438-32.066406 11.023438-46.488281l16.039062-32.152344h-15.300781c-9.089844.0546875-17.382813 5.179688-21.496094 13.28125l-12.9375 26.039062c-6.140625 12.199219-9.332031 25.664063-9.328125 39.320313zm0 0"/><path d="m344 128c-9.097656.046875-18.101562 1.890625-26.488281 5.414062 4.53125 4.246094 8.773437 8.789063 12.695312 13.601563 2.761719 3.449219 2.203125 8.488281-1.246093 11.25-3.453126 2.761719-8.488282 2.199219-11.25-1.25-5.628907-7.039063-12.03125-13.421875-19.078126-19.039063l-.234374-.175781c-43.621094-34.433593-105.175782-34.433593-148.796876 0l-.226562.175781c-7.042969 5.609376-13.441406 11.988282-19.070312 19.015626-1.769532 2.289062-4.636719 3.449218-7.5 3.027343-2.863282-.421875-5.273438-2.355469-6.308594-5.058593-1.03125-2.703126-.523438-5.753907 1.328125-7.976563 3.910156-4.8125 8.140625-9.355469 12.664062-13.601563-8.390625-3.515624-17.390625-5.34375-26.488281-5.382812-57.34375 0-104 71.777344-104 160s46.65625 160 104 160c13.589844-.121094 26.871094-4.078125 38.3125-11.414062-6.09375-4.554688-11.804688-9.597657-17.074219-15.082032-3.039062-3.207031-2.902343-8.273437.304688-11.3125 3.207031-3.039062 8.273437-2.902344 11.3125.304688 22.664062 23.941406 54.179687 37.5 87.144531 37.5s64.480469-13.558594 87.144531-37.5c3.039063-3.207032 8.105469-3.34375 11.3125-.304688 3.207031 3.039063 3.34375 8.105469.304688 11.3125-5.265625 5.488282-10.976563 10.53125-17.074219 15.082032 11.441406 7.339843 24.722656 11.296874 38.3125 11.414062 57.34375 0 104-71.777344 104-160s-46.65625-160-104-160zm-51.488281 60.65625c2.574219-2.113281 6.1875-2.410156 9.074219-.746094l7.476562 4.320313-1.214844-4.527344c-1.140625-4.265625 1.390625-8.648437 5.65625-9.792969 25.492188-6.847656 52.308594 5.035156 64.359375 28.523438 12.050781 23.484375 6.058594 52.199218-14.375 68.910156-2.574219 2.113281-6.1875 2.410156-9.074219.746094l-7.476562-4.320313 1.214844 4.527344c1.140625 4.265625-1.390625 8.648437-5.65625 9.792969-25.492188 6.847656-52.308594-5.035156-64.359375-28.523438-12.050781-23.484375-6.058594-52.199218 14.375-68.910156zm-226.601563 28.847656c8.007813-29.871094 38.714844-47.597656 68.585938-39.59375 4.265625 1.144532 6.796875 5.527344 5.65625 9.792969l-1.214844 4.527344 7.476562-4.320313c2.886719-1.664062 6.5-1.367187 9.074219.746094 20.433594 16.710938 26.425781 45.425781 14.375 68.910156-12.050781 23.488282-38.867187 35.371094-64.359375 28.523438-4.265625-1.144532-6.796875-5.527344-5.65625-9.792969l1.214844-4.527344-7.476562 4.320313c-2.886719 1.664062-6.5 1.367187-9.074219-.746094-17.003907-13.964844-24.273438-36.582031-18.601563-57.839844zm176.617188 190.089844c-2.4375.8125-5.121094.402344-7.207032-1.101562-2.085937-1.503907-3.320312-3.921876-3.320312-6.492188v-16h-16v16c0 2.570312-1.234375 4.988281-3.320312 6.492188-2.085938 1.503906-4.769532 1.914062-7.207032 1.101562-103.617187-4.035156-181.472656-41.515625-181.472656-87.59375-.03125-2.691406.257812-5.378906.863281-8 .5625-2.34375 2.148438-4.308594 4.324219-5.351562 2.171875-1.039063 4.699219-1.046876 6.875-.015626 34.144531 14.082032 70.285156 22.71875 107.105469 25.597657 2.328125.25 4.429687 1.503906 5.75 3.433593 1.324219 1.929688 1.738281 4.339844 1.128906 6.601563l-1.917969 7.148437 15.503906 4.171876 3.4375-12.800782c.941407-3.703125 4.402344-6.195312 8.210938-5.914062 32.335938 1.851562 64.757812 1.503906 97.046875-1.03125 3.847656-.304688 7.363281 2.183594 8.359375 5.914062l3.695312 13.855469 15.503907-4.167969-2.398438-9.082031c-.59375-2.21875-.203125-4.589844 1.074219-6.5 1.273438-1.914063 3.3125-3.183594 5.589844-3.492187 46.007812-6.167969 84.09375-17.375 104.519531-30.765626 1.960937-1.285156 4.386719-1.644531 6.636719-.984374 2.25.660156 4.097656 2.273437 5.050781 4.414062 2.394531 5.339844 3.632813 11.121094 3.640625 16.96875 0 46.078125-77.855469 83.558594-181.472656 87.59375zm0 0"/></svg>